<svg width="245" height="246" viewBox="0 0 245 246" fill="none" xmlns="http://www.w3.org/2000/svg">
<ellipse cx="122.5" cy="123" rx="122.5" ry="123" fill="#E4B0ED" fill-opacity="0.19"/>
<path d="M148.916 87.5497L149.1 87.5276C149.075 87.2902 149.006 87.0672 148.89 86.8574C148.775 86.6487 148.624 86.4698 148.435 86.323C148.22 86.1662 147.981 86.0591 147.721 86.0006C147.46 85.9432 147.198 85.9387 146.937 85.9884C146.826 86.0094 146.718 86.037 146.612 86.0723C139.683 88.5523 131.83 91.3635 125.783 96.9186C120.025 102.202 117.169 109.236 118.136 115.735C118.248 116.573 118.426 117.398 118.669 118.209C118.911 119.02 119.215 119.807 119.581 120.57C119.946 121.333 120.369 122.064 120.85 122.76C121.329 123.457 121.86 124.113 122.443 124.727C121.124 126.779 119.798 128.827 118.467 130.869C112.089 121.247 105.851 111.457 99.919 101.772C99.8295 101.628 99.7246 101.498 99.601 101.382C99.4784 101.265 99.3426 101.165 99.1935 101.085C99.0445 101.004 98.8877 100.943 98.7221 100.904C98.5575 100.864 98.3908 100.846 98.2208 100.851C98.0507 100.852 97.8829 100.875 97.7173 100.92C97.5527 100.964 97.3971 101.029 97.2491 101.114C97.1011 101.199 96.9664 101.302 96.845 101.422C96.7235 101.543 96.6186 101.676 96.5325 101.823C96.464 101.95 96.4132 102.085 96.3823 102.225C96.3503 102.367 96.3382 102.509 96.3459 102.654C96.3536 102.798 96.3801 102.938 96.4265 103.075C96.4729 103.212 96.5369 103.34 96.6175 103.461C103.16 114.141 109.994 124.839 116.936 135.254C117.063 135.463 117.229 135.633 117.434 135.765C117.64 135.897 117.863 135.977 118.106 136.006C118.275 136.063 118.448 136.092 118.627 136.093C118.904 136.088 119.162 136.016 119.403 135.877C119.644 135.739 119.836 135.551 119.981 135.315C121.734 132.639 123.582 129.787 125.627 126.604C126.436 126.843 127.257 127.016 128.093 127.125C128.928 127.235 129.767 127.279 130.608 127.258C131.451 127.237 132.287 127.152 133.115 127C133.944 126.849 134.755 126.635 135.552 126.358C141.782 124.275 146.76 118.534 148.867 111.019C151.081 103.112 150.033 94.8383 149.108 87.5453L148.916 87.5497ZM143.866 113.847C141.163 119.604 134.614 124.832 127.703 123.326C132.025 116.534 136.18 109.819 140.063 103.378C140.143 103.258 140.206 103.128 140.251 102.991C140.296 102.853 140.322 102.713 140.328 102.569C140.335 102.424 140.323 102.282 140.291 102.141C140.257 102 140.207 101.866 140.138 101.739C140.05 101.593 139.945 101.46 139.822 101.341C139.7 101.222 139.564 101.12 139.416 101.036C139.267 100.952 139.11 100.888 138.946 100.844C138.78 100.801 138.612 100.779 138.442 100.778C138.272 100.771 138.104 100.788 137.939 100.827C137.773 100.867 137.615 100.928 137.467 101.01C137.318 101.092 137.182 101.193 137.061 101.312C136.939 101.431 136.837 101.565 136.752 101.713C132.924 108.061 128.802 114.718 124.498 121.486C119.889 116.015 121.558 107.734 125.517 102.653C130.476 96.2925 138.197 93.0728 145.713 90.3399C146.67 98.2425 147.291 106.551 143.866 113.847ZM173.607 106.985C173.565 106.162 173.502 105.339 173.42 104.519C173.337 103.697 173.236 102.879 173.113 102.063C172.991 101.247 172.848 100.434 172.685 99.626C172.522 98.8166 172.34 98.0117 172.138 97.2123C171.937 96.4118 171.715 95.6179 171.474 94.8284C171.234 94.0389 170.973 93.2561 170.694 92.4798C170.414 91.7036 170.116 90.9351 169.799 90.1732C169.481 89.4113 169.146 88.6572 168.792 87.9119C168.438 87.1666 168.066 86.4312 167.675 85.7036C167.285 84.977 166.878 84.2604 166.452 83.5526C166.027 82.846 165.584 82.1503 165.124 81.4647C164.665 80.7801 164.188 80.1065 163.696 79.444C163.203 78.7826 162.694 78.1334 162.17 77.4963C161.645 76.8592 161.105 76.2353 160.55 75.6258C159.994 75.0152 159.425 74.419 158.841 73.836C158.257 73.2541 157.658 72.6865 157.045 72.1333C156.432 71.5802 155.807 71.0424 155.168 70.5202C154.53 69.9979 153.878 69.4922 153.215 69.0019C152.551 68.5106 151.877 68.0369 151.189 67.5798C150.502 67.1226 149.805 66.6832 149.096 66.2603C148.387 65.8374 147.67 65.4322 146.941 65.0446C146.212 64.657 145.475 64.2871 144.728 63.936C143.982 63.5838 143.228 63.2514 142.465 62.9367C141.702 62.6221 140.931 62.3272 140.154 62.0501C139.376 61.7741 138.594 61.5168 137.803 61.2783C137.013 61.0409 136.217 60.8223 135.417 60.6224C134.616 60.4237 133.811 60.2448 133.002 60.0847C132.192 59.9257 131.379 59.7866 130.563 59.6662C129.746 59.5469 128.928 59.4476 128.106 59.3681C127.285 59.2886 126.462 59.2289 125.638 59.1903C124.814 59.1517 123.989 59.1329 123.164 59.134C122.339 59.1351 121.514 59.1572 120.691 59.1991C119.866 59.2411 119.044 59.304 118.223 59.3857C117.401 59.4686 116.583 59.5701 115.767 59.6927C114.951 59.8153 114.138 59.9577 113.33 60.1211C112.521 60.2834 111.717 60.4656 110.916 60.6677C110.116 60.8686 109.322 61.0906 108.533 61.3313C107.743 61.572 106.961 61.8326 106.184 62.1119C105.408 62.3913 104.639 62.6894 103.877 63.0063C103.116 63.3243 102.362 63.66 101.617 64.0133C100.872 64.3677 100.135 64.7398 99.4089 65.1307C98.6812 65.5205 97.9646 65.9279 97.2579 66.3541C96.5513 66.7792 95.8545 67.222 95.17 67.6813C94.4843 68.1418 93.8107 68.6177 93.1493 69.1101C92.4868 69.6026 91.8376 70.1116 91.2005 70.6361C90.5645 71.1606 89.9406 71.7005 89.33 72.2559C88.7194 72.8113 88.1232 73.3811 87.5413 73.9652C86.9583 74.5504 86.3907 75.1488 85.8375 75.7605C85.2843 76.3733 84.7477 76.9983 84.2255 77.6376C83.7021 78.2758 83.1964 78.9273 82.7061 79.5909C82.2159 80.2545 81.7422 80.9302 81.2851 81.617C80.8279 82.3038 80.3874 83.0017 79.9645 83.7094C79.5416 84.4183 79.1363 85.1371 78.7488 85.8648C78.3612 86.5935 77.9913 87.3311 77.6402 88.0775C77.2891 88.8239 76.9556 89.5792 76.642 90.3411C76.3273 91.104 76.0314 91.8747 75.7554 92.6521C75.4782 93.4294 75.221 94.2134 74.9836 95.0028C74.7451 95.7934 74.5265 96.5884 74.3277 97.3889C74.129 98.1895 73.949 98.9944 73.79 99.8049C73.6299 100.614 73.4907 101.427 73.3715 102.243C73.2511 103.06 73.1518 103.878 73.0723 104.7C72.9939 105.521 72.9342 106.344 72.8956 107.169C72.8558 107.992 72.8371 108.817 72.8393 109.642C72.8404 110.467 72.8625 111.292 72.9044 112.115C72.9464 112.94 73.0082 113.763 73.091 114.583C73.1727 115.405 73.2754 116.223 73.398 117.039C73.5206 117.855 73.663 118.667 73.8253 119.476C73.9876 120.285 74.1698 121.09 74.3719 121.889C74.5739 122.69 74.7959 123.484 75.0366 124.273C75.2773 125.063 75.5379 125.846 75.8172 126.622C76.0966 127.398 76.3947 128.166 76.7116 128.928C77.0285 129.69 77.3642 130.443 77.7186 131.189C78.073 131.934 78.4451 132.67 78.8349 133.397C79.2258 134.125 79.6332 134.841 80.0583 135.548C80.4845 136.256 80.9273 136.951 81.3866 137.637C81.846 138.322 82.3219 138.995 82.8154 139.658C83.3079 140.319 83.8169 140.968 84.3414 141.605C84.8659 142.242 85.4058 142.865 85.9612 143.476C86.5155 144.086 87.0863 144.683 87.6705 145.265C88.2546 145.848 88.853 146.415 89.4658 146.968C90.0775 147.521 90.7036 148.059 91.3429 148.581C91.9811 149.104 92.6326 149.609 93.2962 150.1C93.9598 150.59 94.6344 151.064 95.3212 151.521C96.0091 151.978 96.7058 152.418 97.4147 152.841C98.1236 153.264 98.8413 153.669 99.5701 154.057C100.299 154.445 101.036 154.814 101.783 155.166C102.529 155.517 103.283 155.85 104.046 156.164C104.809 156.478 105.58 156.774 106.357 157.05C107.135 157.328 107.918 157.585 108.708 157.822C109.498 158.061 110.294 158.279 111.094 158.478C111.895 158.677 112.7 158.857 113.509 159.016C114.32 159.176 115.132 159.315 115.948 159.434C116.765 159.555 117.583 159.654 118.405 159.734C119.226 159.812 120.049 159.872 120.873 159.91C121.698 159.95 122.522 159.969 123.347 159.966C124.172 159.965 124.997 159.943 125.821 159.901C126.644 159.858 127.467 159.795 128.287 159.713C129.108 159.63 129.926 159.526 130.742 159.402C131.558 159.28 132.369 159.136 133.178 158.973C133.987 158.81 134.791 158.627 135.59 158.425C136.39 158.222 137.183 158 137.973 157.758C138.761 157.517 139.543 157.257 140.319 156.976C141.096 156.697 141.864 156.398 142.625 156.081C143.387 155.763 144.14 155.427 144.884 155.073C145.629 154.718 146.365 154.345 147.091 153.955C147.818 153.565 148.534 153.157 149.241 152.731C149.948 152.306 150.643 151.863 151.328 151.403C152.014 150.943 152.686 150.467 153.347 149.974C154.009 149.481 154.658 148.972 155.295 148.448C155.931 147.923 156.555 147.383 157.164 146.829C157.775 146.274 158.371 145.704 158.953 145.12C159.535 144.535 160.103 143.937 160.656 143.324C161.208 142.713 161.746 142.087 162.268 141.449C162.79 140.81 163.296 140.159 163.786 139.496C164.276 138.833 164.75 138.158 165.207 137.471C165.664 136.785 166.105 136.087 166.528 135.379C166.951 134.671 167.356 133.952 167.744 133.225C168.132 132.497 168.501 131.759 168.853 131.013C169.204 130.268 169.538 129.514 169.852 128.751C170.167 127.988 170.463 127.218 170.74 126.442C171.016 125.664 171.275 124.882 171.513 124.091C171.752 123.302 171.97 122.507 172.17 121.707C172.37 120.907 172.549 120.102 172.709 119.292C172.869 118.483 173.009 117.67 173.13 116.854C173.25 116.038 173.35 115.22 173.43 114.399C173.511 113.578 173.57 112.756 173.61 111.932C173.65 111.108 173.67 110.283 173.668 109.459C173.668 108.634 173.647 107.81 173.607 106.985ZM125.633 156.217C124.111 156.295 122.59 156.298 121.067 156.227C119.544 156.155 118.03 156.009 116.522 155.789C115.014 155.569 113.52 155.275 112.042 154.908C110.562 154.541 109.105 154.102 107.669 153.592C106.233 153.082 104.826 152.503 103.447 151.854C102.068 151.206 100.723 150.492 99.4144 149.712C98.1048 148.931 96.8384 148.089 95.6116 147.184C94.386 146.279 93.2067 145.316 92.075 144.295C90.5424 142.907 89.1048 141.425 87.7643 139.85C86.4238 138.275 85.1905 136.62 84.0653 134.884C82.9391 133.15 81.9299 131.349 81.0377 129.483C80.1467 127.617 79.3782 125.701 78.7344 123.734C77.5618 119.881 76.8463 115.944 76.5901 111.924C76.5327 110.812 76.5151 109.699 76.5371 108.586C76.5592 107.472 76.6211 106.361 76.7226 105.253C76.8242 104.143 76.9656 103.04 77.1455 101.941C77.3266 100.842 77.5463 99.7508 77.8047 98.6676C78.0631 97.5844 78.3601 96.5122 78.6958 95.45C79.0315 94.3889 79.4047 93.34 79.8143 92.3054C80.2251 91.2697 80.6722 90.2505 81.1559 89.2479C81.6395 88.2442 82.1573 87.2593 82.7116 86.2932C83.2648 85.327 83.8533 84.383 84.4739 83.4588C85.0955 82.5346 85.7492 81.6336 86.4349 80.7569C87.1217 79.8791 87.8372 79.0278 88.5847 78.2018C89.3311 77.3759 90.1073 76.5776 90.9112 75.8069C91.715 75.0362 92.5453 74.2953 93.4022 73.5842C94.259 72.8731 95.1401 72.1941 96.0456 71.5459C96.9521 70.8978 97.8796 70.2828 98.8292 69.7009C99.7787 69.1201 100.747 68.5724 101.736 68.0601C102.725 67.5477 103.731 67.0718 104.754 66.6313C105.777 66.1907 106.813 65.7877 107.866 65.4222C108.917 65.0556 109.98 64.7277 111.056 64.4373C112.131 64.148 113.214 63.8963 114.307 63.6843C115.4 63.4712 116.5 63.2989 117.606 63.1642C118.711 63.0306 119.82 62.9367 120.932 62.8826C122.044 62.8274 123.157 62.8131 124.27 62.8385C125.384 62.8639 126.495 62.929 127.604 63.0328C128.712 63.1377 129.815 63.2823 130.914 63.4656C132.013 63.6489 133.102 63.872 134.185 64.1337C135.268 64.3953 136.339 64.6957 137.4 65.0336C138.461 65.3714 139.509 65.7479 140.542 66.1609C141.577 66.5739 142.595 67.0244 143.596 67.5102C144.598 67.996 145.582 68.5172 146.546 69.0737C147.511 69.6302 148.454 70.2209 149.377 70.8448C150.299 71.4686 151.198 72.1245 152.073 72.8135C153.884 74.2622 155.582 75.8323 157.168 77.525C158.753 79.2177 160.21 81.0153 161.537 82.9166C162.864 84.8191 164.049 86.8066 165.09 88.8791C166.133 90.9517 167.02 93.0871 167.755 95.2877C168.965 99.16 169.687 103.122 169.922 107.173C169.96 107.937 169.978 108.701 169.979 109.465C169.979 110.229 169.962 110.993 169.924 111.757C169.888 112.52 169.831 113.283 169.758 114.044C169.684 114.805 169.591 115.564 169.479 116.32C169.368 117.076 169.237 117.829 169.089 118.579C168.94 119.329 168.774 120.074 168.589 120.816C168.404 121.558 168.201 122.295 167.98 123.027C167.759 123.759 167.519 124.484 167.263 125.204C167.007 125.924 166.732 126.637 166.441 127.344C166.149 128.051 165.84 128.749 165.514 129.442C165.188 130.133 164.846 130.816 164.486 131.491C164.127 132.166 163.751 132.83 163.359 133.487C162.967 134.143 162.559 134.789 162.135 135.426C161.713 136.062 161.273 136.688 160.818 137.302C160.364 137.917 159.895 138.52 159.411 139.112C158.927 139.704 158.429 140.284 157.916 140.851C157.404 141.419 156.879 141.973 156.339 142.515C155.8 143.056 155.247 143.584 154.681 144.099C154.116 144.613 153.538 145.113 152.949 145.6C152.359 146.086 151.757 146.557 151.145 147.014C150.531 147.471 149.907 147.912 149.273 148.339C148.638 148.765 147.993 149.174 147.339 149.569C146.684 149.964 146.019 150.341 145.347 150.704C144.673 151.066 143.991 151.411 143.301 151.739C142.61 152.068 141.913 152.38 141.207 152.673C140.502 152.968 139.789 153.245 139.071 153.505C138.351 153.763 137.626 154.005 136.895 154.229C136.164 154.453 135.428 154.659 134.687 154.846C133.946 155.034 133.201 155.204 132.452 155.355C131.702 155.507 130.949 155.639 130.194 155.754C129.438 155.868 128.68 155.964 127.92 156.041C127.159 156.118 126.397 156.177 125.633 156.217Z" fill="#EEAB91"/>
<path d="M91.3135 195.368V199.667C91.1377 199.867 90.8691 200.082 90.5078 200.312C90.1514 200.541 89.6948 200.739 89.1382 200.905C88.5815 201.066 87.9175 201.146 87.146 201.146C86.4478 201.146 85.813 201.034 85.2417 200.81C84.6704 200.58 84.1797 200.246 83.7695 199.806C83.3594 199.362 83.042 198.82 82.8174 198.18C82.5977 197.541 82.4878 196.808 82.4878 195.983V195.353C82.4878 194.528 82.5977 193.795 82.8174 193.156C83.0371 192.516 83.3472 191.977 83.7476 191.537C84.1479 191.093 84.624 190.756 85.1758 190.526C85.7275 190.297 86.3379 190.182 87.0068 190.182C87.959 190.182 88.7378 190.336 89.3433 190.644C89.9487 190.946 90.4077 191.366 90.7202 191.903C91.0376 192.44 91.2329 193.058 91.3062 193.756H89.0063C88.9575 193.4 88.8599 193.092 88.7134 192.833C88.5718 192.575 88.3691 192.377 88.1055 192.24C87.8418 192.099 87.5 192.028 87.0801 192.028C86.7432 192.028 86.438 192.099 86.1646 192.24C85.896 192.377 85.6689 192.584 85.4834 192.863C85.2979 193.141 85.1562 193.488 85.0586 193.903C84.9609 194.313 84.9121 194.792 84.9121 195.338V195.983C84.9121 196.53 84.9609 197.011 85.0586 197.426C85.1611 197.841 85.3101 198.188 85.5054 198.466C85.7007 198.739 85.9473 198.947 86.2451 199.088C86.5479 199.23 86.8994 199.301 87.2998 199.301C87.6123 199.301 87.876 199.276 88.0908 199.228C88.3057 199.174 88.4814 199.108 88.6182 199.03C88.7549 198.947 88.8574 198.871 88.9258 198.803V197.03H87.0288V195.368H91.3135ZM92.9468 190.336H97.041C97.8564 190.336 98.562 190.458 99.1577 190.702C99.7583 190.946 100.22 191.308 100.542 191.786C100.864 192.265 101.025 192.855 101.025 193.559C101.025 194.145 100.93 194.643 100.74 195.053C100.549 195.463 100.281 195.802 99.9341 196.071C99.5923 196.339 99.1919 196.557 98.7329 196.723L97.9565 197.147H94.4702L94.4556 195.294H97.0483C97.4048 195.294 97.7002 195.231 97.9346 195.104C98.1689 194.977 98.3447 194.799 98.4619 194.569C98.584 194.335 98.645 194.062 98.645 193.749C98.645 193.427 98.584 193.148 98.4619 192.914C98.3398 192.68 98.1592 192.501 97.9199 192.379C97.6855 192.252 97.3926 192.189 97.041 192.189H95.3345V201H92.9468V190.336ZM98.8501 201L96.4551 196.261L98.9746 196.254L101.406 200.89V201H98.8501ZM109.895 199.154V201H104.219V199.154H109.895ZM105.032 190.336V201H102.644V190.336H105.032ZM109.163 194.628V196.415H104.219V194.628H109.163ZM109.902 190.336V192.189H104.219V190.336H109.902ZM118.318 199.154V201H112.642V199.154H118.318ZM113.455 190.336V201H111.067V190.336H113.455ZM117.585 194.628V196.415H112.642V194.628H117.585ZM118.325 190.336V192.189H112.642V190.336H118.325ZM128.286 190.336V201H125.906L121.877 194.108V201H119.49V190.336H121.877L125.913 197.228V190.336H128.286ZM131.194 190.336H133.171L135.735 197.96L138.291 190.336H140.269L136.533 201H134.929L131.194 190.336ZM130.051 190.336H132.065L132.439 198.239V201H130.051V190.336ZM139.397 190.336H141.418V201H139.023V198.239L139.397 190.336ZM147.754 192.365L145 201H142.451L146.399 190.336H148.01L147.754 192.365ZM150.039 201L147.278 192.365L146.992 190.336H148.625L152.588 201H150.039ZM149.922 197.03V198.876H144.363V197.03H149.922ZM162.271 190.336V201H159.89L155.862 194.108V201H153.474V190.336H155.862L159.897 197.228V190.336H162.271Z" fill="white"/>
</svg>
